<svg width="201" height="133" viewBox="0 0 201 133" fill="none" xmlns="http://www.w3.org/2000/svg">
<path d="M82.8824 121.557L71.6517 123.429L55.3345 128.793L62.0514 118.369L41.5808 132.763L62.0514 109.733L35.5036 125.406L55.3345 99.8178L20.4705 118.369L41.5808 97.8987L0 115.171L39.3418 83.8252L7.03675 97.8987L55.3345 64.7229L26.2279 75.8289L46.9781 58.9373L5.43748 74.2296L60.7719 38.4061L24.3088 49.601L62.0514 26.8915L26.2279 30.09L104.592 0L91.7142 12.2482L136.29 4.18194L121.431 13.8546L182.636 4.18194L147.772 22.8902L170.481 21.7738L149.371 38.4061L200.867 15.0569L165.071 36.1356L178.158 33.2885L159.455 44.3034L200.867 30.09L149.371 55.6782L185.195 49.601L150.947 63.5317L170.481 60.7958L157.664 71.6708L192.871 60.7958L147.772 83.8252H175.599L143.934 97.8987L179.757 89.2627L143.934 108.795L172.72 106.215L138.696 118.369L155.128 120.608L95.4744 128.793L102.111 123.429L71.6517 130.406L82.8824 121.557Z" fill="#6F0000"/>
<path d="M112.467 89.2991L118.221 83.9346H113.442C112.568 83.9692 112.134 84.0839 111.533 84.5864L106.206 89.2991H78.2618L83.0295 84.8124V75.5322H74.9682C76.7861 67.3647 83.0295 67.5749 83.0295 67.5749V24.2782H125.342V84.8124L120.562 89.2991H112.467Z" fill="white"/>
<path d="M75.1179 114.193V95.6628H87.604V98.8929H79.0357V103.308H86.9616V106.538H79.0357V110.963H87.6402V114.193H75.1179Z" fill="white"/>
<path d="M94.3922 95.6628L98.129 101.978H98.2738L102.029 95.6628H106.453L100.798 104.928L106.58 114.193H102.074L98.2738 107.868H98.129L94.3289 114.193H89.8411L95.6408 104.928L89.9497 95.6628H94.3922Z" fill="white"/>
<path d="M112.85 95.6628V114.193H108.932V95.6628H112.85Z" fill="white"/>
<path d="M115.368 98.8929V95.6628H130.586V98.8929H124.913V114.193H121.041V98.8929H115.368Z" fill="white"/>
<path d="M96.0837 54.8237L100.451 46.0393H94.8481L90.5266 52.9422C90.4497 53.1037 90.3548 53.2546 90.2445 53.393L90.1893 53.4814L90.1771 53.4738C89.7505 53.9621 89.1237 54.2713 88.4243 54.2713C87.1389 54.2713 86.0969 53.2291 86.0969 51.9438C86.097 51.331 86.334 50.7739 86.721 50.3583L91.1588 43.1567C91.6373 42.5758 92.1025 42.1974 92.6101 41.9198C93.1177 41.6422 93.9805 41.4767 94.6965 41.4486H107.805C107.805 41.4486 110.064 41.5588 111.131 42.1577C112.198 42.7567 112.948 43.8954 112.948 43.8954L118.506 50.78H129.567V55.3709H116.23C115.842 55.3649 115.867 55.2912 115.531 55.1508L110.987 49.431L107.405 57.2232C107.249 57.6194 107.25 57.8408 107.405 58.237L119.504 82.5017H113.894C112.92 82.5017 112.115 81.6481 111.528 80.5078L101.356 60.9068L100.274 71.6198C99.8701 73.611 99.0811 74.0842 96.9962 74.1544H76.8544C77.882 70.6595 79.9162 68.4769 83.9175 68.4769H94.6965L95.374 57.2232C95.4441 56.2772 95.5872 55.7515 96.0837 54.8237Z" fill="#6F0000"/>
<path d="M114.827 35.3008C114.827 38.0468 112.601 40.2728 109.855 40.2728C107.109 40.2728 104.883 38.0468 104.883 35.3008C104.883 32.5549 107.109 30.3289 109.855 30.3289C112.601 30.3289 114.827 32.5549 114.827 35.3008Z" fill="#6F0000"/>
</svg>
